<?xml version="1.0" encoding="UTF-8" standalone="no"?>
<svg id = "india-map-svg" width="935px" height="965px" viewBox="0 0 935 965" version="1.1" xmlns="http://www.w3.org/2000/svg" xmlns:xlink="http://www.w3.org/1999/xlink" preserveAspectRatio="xMidYMid">
    <g id = "svg-group" d="Page-1" stroke="none" stroke-width="1" fill="none" fill-rule="evenodd">
        <g id="Artboard" transform="translate(-3634.000000, -1709.000000)">
            <g id="india" transform="translate(3635.000000, 1711.000000)">
                <g id="svg2">
                    <polygon id="Shape" stroke="#C3C3C3" stroke-width="2" fill="#ECECEC" points="357.4 922.2 356.9 922.3 357.6 922.5 357.4 922.2"></polygon>
                    <polygon id="CH" stroke="#C3C3C3" stroke-width="2" fill="#ECECEC" points="286.2 162.3 283.9 164.1 284.8 164.9 287.3 166.3 287.8 166.4 287.5 165.6 287.6 164.9 287.8 164.5 287.3 163 287.4 162.6"></polygon>
                    <polygon id="DL" stroke="#C3C3C3" stroke-width="2" fill="#ECECEC" points="297 229.8 294.3 229.1 290.3 231 290.4 235.5 288 237.9 287.6 240.8 289 241.4 292.1 240.3 294.2 241.4 295.5 243.5 300.4 242.1 302.3 241.8 301.5 240.3 301.7 234.8 299.2 232.5 298.9 230.4 298.4 229.3 297 229.8"></polygon>
                    <polygon id="HP" stroke="#C3C3C3" stroke-width="2" fill="#ECECEC" points="259.1 102.3 259.4 102.4 260.8 105.9 252 111.1 252 113.5 250.4 117.2 255.7 119 259.9 121.8 262.2 126 260.8 127 265.1 135.4 267.1 142.2 272.4 143 273.9 140.2 276.2 144.8 280.3 145.6 281 150.5 281.7 151.5 281.7 154.7 284.7 157.3 286.1 158.5 286.2 158.3 287.6 157.6 288.5 158.8 290.3 158.8 293.6 163.3 297.7 166.5 297.1 170.4 297.6 171.4 304.8 175.3 306.8 174.4 306.7 175.7 308.9 175.5 311.1 177 311.1 176.9 311 176.7 317.9 172.6 316.2 169.2 315.9 164.7 315 162.8 316.7 159.6 317.6 159.9 316.6 156 322 149.8 327.8 148.1 333 145.5 336.3 146.1 339.4 147.9 342.9 147.6 348.9 148.7 351 151.4 353 151.5 355 150.5 351.3 145.2 351.3 145.3 347.4 145.1 347.7 141.3 345.8 137.9 349.5 134.5 347.1 132.5 345 128.9 347.2 122.8 344.3 119.7 340.2 113.7 338.5 112.5 338 108 338.3 106.1 337.1 104.4 336.2 102.6 334.2 104.5 332.9 103.4 334.2 99.9 335.9 98.7 336.4 96.7 335.4 94.3 332.1 96.9 327.8 97.9 324.9 99.7 322.6 96.2 320.4 90.6 316.7 86.1 315.8 85.7 312 88.2 305.6 90.7 298.5 88.6 293.1 85.1 286.7 79.1 283.2 79.3 280.8 77.8 273.2 80.6 271.4 83.5 262.1 89 261.6 88.4 258.1 88.6 261.5 97.6 259.3 102 259.1 102.3"></polygon>
                    <polygon id="HR" stroke="#C3C3C3" stroke-width="2" fill="#ECECEC" points="311.1 177 308.9 175.5 306.7 175.7 306.8 174.4 304.8 175.3 297.6 171.4 297.1 170.4 297.7 166.5 293.6 163.3 290.3 158.8 288.5 158.8 287.6 157.6 286.2 158.3 286.1 158.5 286.4 158.8 287.1 160.3 287.9 160.6 287.9 161.9 287.4 162.6 287.3 163 287.8 164.5 287.6 164.9 287.5 165.6 287.8 166.4 288.1 166.5 290 169.5 290.2 172.2 289.8 177.1 287.7 175.2 285.3 175.1 284.8 177.6 282 179.7 278.5 181.4 279.9 181.4 281.7 183.1 276 186.6 274.7 183.6 273.5 185.7 269.3 186.5 267.1 191.7 267.5 193.3 265.4 196.1 262.4 198.3 257.9 198.4 256.1 195.9 252.7 196.5 252.6 197.4 249.1 197.8 244.4 196.2 240.9 200.4 239.4 204 237.8 204.7 235.5 200.2 237.6 198.1 236.9 196.8 233.6 195.6 233.6 192 230.2 193.7 224.7 189.6 221.4 190.2 218.9 192 217.3 191.3 215.4 190.8 215.3 191.9 216.3 193.6 213.9 195.3 213.9 198 217.8 198.6 217.3 199.8 217 207.6 216.1 207.6 220.7 211 222.5 211.2 224.2 210 226.9 210.9 228.8 214.2 231 214.2 231.7 215.5 237.9 215.2 239.5 213.9 242.4 217.7 241.4 218.2 242 221 243.9 223.7 245.2 224.2 246.5 233 247.3 236 255.1 244.8 261.4 251 261.4 253 258.4 255 261.1 256.3 259.3 259.7 259.3 264.5 264.4 265.4 265.6 266.3 266 256.9 266.7 257.1 270.8 255 274.5 254 274.3 257.6 278 260.5 280.9 259.1 280.5 256.9 286.3 251.7 287 251.7 289.7 254.3 289.3 259.2 289.8 262.8 289 266 288.9 270.1 290.7 271 293.8 268.9 292.9 266.6 295.3 267.1 296.6 266.2 298.9 267.1 299.6 266.4 300.5 266.5 301.3 265.8 305.1 263.7 306.2 263.9 307.6 259.2 306.5 258.3 307.7 256.7 308.8 251.5 306.6 248.9 306.3 244.8 305.7 245 302.5 242.2 302.3 241.8 300.4 242.1 295.5 243.5 294.2 241.4 292.1 240.3 289 241.4 287.6 240.8 288 237.9 290.4 235.5 290.3 231 294.3 229.1 297 229.8 298.4 229.3 298.8 228.6 297.7 226.3 296.9 221.5 296.5 210.1 295.7 207.7 294.5 207.4 294.3 205.6 295.6 204.4 295.2 203.2 297 199.4 296.7 198.6 300.2 190.8 305.3 186.3 306.6 184.2 310.6 180.6 311.1 177 311.1 176.9 311.1 177"></polygon>
                    <polygon id="JK" stroke="#C3C3C3" stroke-width="2" fill="#ECECEC" points="242.2 108.4 246.6 107.8 248.4 109.6 250.6 107.1 255.5 105 258.8 102.6 259.1 102.3 259.3 102 261.5 97.6 258.1 88.6 261.6 88.4 262.1 89 271.4 83.5 273.2 80.6 280.8 77.8 283.2 79.3 286.7 79.1 293.1 85.1 298.5 88.6 305.6 90.7 312 88.2 315.8 85.7 316.7 86.1 320.4 90.6 322.6 96.2 324.9 99.7 327.8 97.9 332.1 96.9 335.4 94.3 336.4 96.7 335.9 98.7 334.2 99.9 332.9 103.4 334.2 104.5 336.2 102.6 336.3 101.9 343.8 100.9 345.8 99.1 347.5 99.7 347 101.5 348.1 104.9 352.4 108.6 353.3 108.9 359.1 104.1 364 103.8 368.3 100 370.4 96.2 370.3 95 367.6 90.2 365.8 88.7 365.5 80.1 357.7 78.8 357.3 77.2 354.3 75.6 349.8 70.3 348.5 67.2 348.9 60.6 346.7 51.9 347 49 352.2 46.2 354.4 44.2 352.8 38.8 351.7 38.4 343.4 32.8 336.6 31.7 333.4 28.9 329.3 15.2 326.5 10.4 325.5 7.8 326.9 0.2 325.1 0.1 322.1 2.2 319.7 0 308.5 6.6 296.4 13.9 296.1 17.4 292.1 19 288.4 19.7 284.8 25.7 282.2 26.2 277.6 25.3 273.5 27.5 269.3 28.3 267.4 27.5 265.9 28.1 259.4 33.4 253.9 33.6 246.1 31.5 241.1 28.3 236.3 28.8 225.9 26.6 218.5 23.8 214.7 23.5 209.7 26.1 204.9 26.8 203.2 31 201.7 31.9 199.1 37.8 199.7 38.4 204.1 39.9 204.7 41.7 201.7 46.9 203.4 49.5 207 49.3 208.6 49.9 211.9 49.6 212.8 52.5 210.2 54.9 205.1 56.5 204 58.2 203.8 62 208.6 65.6 209 67.5 207.2 72.6 203.7 75.7 203.9 78.3 206.7 80.9 213.3 85.7 213.5 89.9 212.9 91.9 216 92.2 218.4 93.6 221.2 93.3 223.1 90.6 223.1 93.7 222.1 99.2 223.8 103.3 228.3 103.2 230.4 104.3 233.9 103.6 240.1 106.7 242.2 108.4"></polygon>
                    <path d="M422,690.4 L420.8,688 L418.5,688.2 L420.2,690.2 L422,690.4 L422,690.4 Z M306,600.2 L307.1,600.8 L306.6,603.2 L307.3,604.9 L308.4,612.6 L308.2,613.7 L304.4,617.9 L304.7,620.2 L303.5,620.7 L301.1,624 L306.9,625.9 L307.1,626.8 L310.3,626.8 L309.3,628.7 L307.1,629.3 L304.6,631.5 L299.8,638.4 L301.6,641.5 L302.8,644.8 L301.6,653.4 L301,654.1 L301.1,661.1 L295.6,665.7 L300.2,668.1 L304.9,668.9 L304.8,671.3 L303.4,672.8 L303.1,680 L301.9,683.3 L292.2,682.7 L289.2,684.3 L287.8,686 L289.4,693.6 L286.9,694.1 L287.2,704 L290,706 L290.9,711.4 L289.6,714.8 L287.5,716.7 L281.7,715.4 L278.3,713.5 L277,717.5 L280.2,719 L280,721.8 L277.4,730.5 L277.8,732.1 L283.9,736 L281.3,738.6 L283,743.1 L285.1,743.5 L289,743.3 L288.9,742.4 L291,740.1 L297.4,742.3 L299.2,743.8 L301.7,741.9 L301.2,746.1 L299.8,746.2 L297.5,750 L299.8,755.4 L297.4,754.4 L296.3,752.2 L290.3,752.1 L285.8,749.6 L285,746.1 L283.3,745.5 L281.6,746.7 L283.8,749.3 L286.4,755.2 L284.6,758.1 L287.4,761.2 L290.6,759.8 L289.5,757.4 L292.8,756.1 L299.6,758 L300.6,759.4 L301.1,762.3 L303.2,762.7 L307.5,760 L309.2,760.5 L309.6,759.4 L312.7,757.4 L313.3,754.4 L316.9,755 L318.4,754.2 L317.8,758.3 L319,757 L321.5,756.4 L323.1,757.4 L323.2,761.1 L323.9,762.4 L322.3,763.3 L322.7,764.4 L325,764.6 L326.7,766.5 L330,766.9 L332.8,769.1 L333.4,776.3 L334.7,776.2 L338.1,777.9 L339.4,777.1 L339.9,778.7 L337.9,785 L336.8,785.9 L334.6,789.6 L335.4,792.4 L333.3,790.9 L330,793.2 L329,792.8 L328.5,795.9 L328.2,796.2 L329.7,798.4 L332.4,800.4 L335.7,800.4 L340,796.1 L341.3,793.1 L342.3,788.7 L345.3,785.7 L349.9,784.9 L354.3,784.6 L357.4,786.5 L359.9,786.3 L364.3,782.5 L365.2,783.2 L369.3,780 L370.3,776.1 L370.9,775.8 L375.5,777.9 L378.5,777.8 L381.8,779.8 L382.9,777.3 L388,774.4 L387.9,773 L391,770.1 L396.2,771.8 L398.2,771.1 L397.9,771.1 L393.3,770 L391,765.8 L392.4,763.2 L393.8,765.8 L394,761.9 L397.6,766.8 L398.8,769.6 L398.8,769.5 L399,769.2 L399.1,769.1 L399.1,769.1 L397,762.2 L397.6,761 L394.3,751.4 L393.8,744.3 L390.8,745.4 L395.1,740.2 L395.8,732.4 L392.7,727.1 L390.9,716.5 L390.8,713.8 L393.7,702.7 L396.1,699.5 L397.9,693.2 L401.2,689.6 L406.8,686.7 L410,685.6 L414,685.2 L416.3,687.2 L416.4,691.6 L419.2,685.3 L419.9,682.8 L420.3,687.3 L422.9,687 L426,684.3 L431.7,671.3 L431.3,670.2 L435,668.3 L437,669.4 L439,668.8 L446.5,670.3 L459.1,665.6 L465.5,661.2 L467.2,660.7 L469,652.5 L468.9,650.8 L465.2,649.9 L465.1,648.4 L469.6,641.4 L472.5,638.5 L480.7,633.4 L489.3,629.6 L493.1,626.8 L497.2,623.1 L498.4,623.1 L498.3,620.2 L500.1,621.1 L503.5,617.7 L505.1,612.8 L505.8,613.5 L515.8,605 L525.9,600.1 L528,596.5 L537.2,587.1 L538,585.5 L541,582.1 L543.9,577.1 L545,576.5 L548.6,569.9 L548.6,569.9 L547.4,568.3 L544,570.5 L538.3,573.5 L537,577.6 L536.1,577.6 L534.6,580.3 L528.3,582 L526.3,581.4 L519.5,581.4 L516,574.6 L513.7,577 L512.1,573.5 L509.1,570.2 L508.7,571.5 L506.2,574.5 L505.3,572.6 L504.2,575.9 L500.5,574.7 L499.2,575.2 L502.4,580 L496,584 L493.5,583.5 L491.1,586.8 L490.1,589.5 L492.2,591.7 L489.1,597 L487.9,597.7 L483.3,595.1 L479.4,599.6 L477.6,602.3 L475.5,601.6 L475.5,600.5 L472.7,592.5 L470.5,592.2 L468.4,595.5 L467.7,601.2 L466.6,602.9 L468.1,605.6 L467.4,608.7 L465.1,609.4 L464.5,610.7 L457.5,609.1 L455.9,610.3 L453.5,610.7 L447.3,614.4 L446.1,615.7 L441.9,618 L439.6,617 L437.6,618.1 L435.7,617.7 L433.2,617.6 L427.4,616.7 L422.9,618.5 L420.8,610.5 L421,606 L417.4,605.5 L417.3,604.1 L413.6,605.1 L413.4,603.5 L414.6,602.6 L411.9,596.5 L408.1,592 L404.1,589.7 L402.2,590.3 L398,585.8 L397.5,585.9 L396.9,586.4 L391.5,586.5 L388.5,583.4 L387.4,583 L386.9,577 L383.8,573 L386.5,569.9 L386,567.7 L386.9,564.8 L386,558.9 L383.7,557.8 L381.5,555 L376.1,555.8 L373.7,557.8 L372.9,557.1 L367.7,556.6 L367.3,555.9 L362.9,554.7 L360.6,553.1 L358.4,553.5 L354.8,555.7 L350.6,553 L349.8,550.4 L337.4,547.7 L335.3,546.9 L332.4,544.5 L334.9,550.5 L332.4,554 L331.1,559.3 L329.4,559.7 L327.2,562.7 L321.8,565.7 L321.1,564.5 L318.1,564.3 L317,565.1 L314.2,572.9 L313.1,573.7 L314.2,576.3 L315.7,577.6 L314.1,585.9 L311.3,587.1 L309.8,591.1 L308.4,591.2 L306.4,593.8 L304.4,597.6 L306.2,599.4 L306,600.2 L306,600.2 Z" id="AP" stroke="#C3C3C3" stroke-width="2" fill="#ECECEC"></path>
                    <polygon id="KL" stroke="#C3C3C3" stroke-width="2" fill="#ECECEC" points="264.7 833.9 259.5 829.4 258.6 829.6 253.7 826.6 252.9 823.9 246.9 824.6 245.1 824.1 243 821.6 242.8 820.5 235 816.5 231.7 812.6 229.8 811.8 228.4 807 225.3 803.4 225.8 801.9 224.4 800.7 222.5 800.9 215.5 796.6 214.7 794.8 211.7 795.1 211.8 795.3 212.6 796.6 216.3 805.9 219.4 811.5 223.8 821.6 224 821.6 225.3 818.7 228.1 817.4 229.6 817.9 227.1 819.1 226.9 820.9 226.9 820.9 227 824.8 229.4 827.2 236.4 837.9 237.5 841.1 239.1 841.5 241.8 847 244.8 854.5 247.4 864.7 248.5 865.2 250.4 872 252.8 878.1 254.1 879.8 256.2 886.6 257.8 884.5 258.1 886.5 256.5 887.4 256.6 889.7 257.7 892.6 257.8 888.6 260.5 895.2 263.9 899.1 263.8 903.5 264.6 906.4 267.6 910 265.3 910.9 263.1 906.8 263.3 904.3 261.8 898.1 259.8 900.2 261 911.4 262.7 917.4 266.8 922.8 266 924.9 268.7 931.1 270.3 928.9 271 929.9 269.4 932.8 272.4 935.4 278.7 944.2 280.6 946 284.6 951.4 288.6 954.4 292.6 947.9 294 946.9 294.2 944.8 291.6 942.5 291.1 939.6 293.7 934.8 291.5 931.9 292.2 927.8 295.8 918.5 299.1 911.9 297.1 908.7 291.5 907.4 293.2 902 293 897.8 294 896 293 891 294 885.5 293.5 883.6 291.8 881.3 283.6 885.7 279.6 882.6 279.1 870.8 281.4 866 277.3 861.8 274.1 859.8 274.6 856.9 277.2 856.6 273.6 850.6 269.1 851 266 850.6 266.8 848.9 269.2 847.1 267.9 844.6 259.2 840.6 259.1 836.7 261.7 837.4 265.3 834.8 265.2 834.6 264.7 833.9"></polygon>
                    <path d="M146.8,953.7 L147,953 L145.8,953.7 L146.8,953.7 L146.8,953.7 Z M168.8,887.3 L168.8,887.5 L168.9,887.3 L168.8,887.3 L168.8,887.3 Z M130.7,864.2 L130.5,864.2 L130.4,864.2 L130.7,864.2 L130.7,864.2 Z M137.7,852.6 L137.5,852.4 L137.5,852.6 L137.7,852.6 L137.7,852.6 Z M138.8,849.9 L139.4,847.2 L138.8,848.6 L138.8,849.9 L138.8,849.9 Z M136.6,832.1 L136.9,831.9 L136.8,831.9 L136.6,832.1 L136.6,832.1 Z" id="LD" stroke="#C3C3C3" stroke-width="2" fill="#ECECEC"></path>
                    <polygon id="OR" stroke="#C3C3C3" stroke-width="2" fill="#ECECEC" points="606.7 458.5 600.8 455.1 599.6 455.6 595.8 454.1 595.2 453.1 588.4 449.7 586.6 447.7 584.8 453.5 584.2 458.1 585 460.3 584.8 463.7 583 466.6 580.3 468 578.4 466.1 577.3 464 575.1 464.9 570.8 463.9 567.8 462.2 561.9 464.9 560.4 466.7 555.3 463.9 552.2 464.2 555.4 458.2 555.2 452.4 554.4 450.4 549.7 453.2 543.5 453.3 536.1 453.8 533.4 456.9 529.2 457.1 521.6 451.2 519.6 450.1 518.3 449.9 518.3 450.5 518 455.5 514.3 456.6 510.4 460 506.7 462.1 503.9 468.4 503.8 469.7 505.6 474.2 502.6 475.9 502.2 478 498.6 484.7 498.1 488.1 500.2 491.8 497.3 491.8 494.1 498.4 491.8 500.3 486.7 498.4 476.1 499.3 474.6 503.9 470.2 509.5 469.1 510.4 465.9 509.7 466.8 516.9 466.2 521.4 468 524.1 468.8 524.1 469.4 534.4 468.8 536.7 472 539.2 473.4 539.1 478.4 540.6 478.2 544.2 478.8 544.7 474.4 548.1 474.4 545.5 471 544.5 466.7 544.4 464.8 545.8 462.7 541.5 457.5 538.1 456.1 539.7 452.6 536.8 449 541.4 449.9 543.9 452.7 545.5 454.4 547.6 455.5 547.7 456.5 552.4 456.2 557.2 458.7 559.7 461.1 564.5 460.5 565.8 461 571.3 461.8 571.8 463.1 575.5 462.8 578.4 461.1 581.1 460.3 584.3 455.9 585.8 452.5 588.3 452.9 591.5 444.4 600.1 442.2 601.2 439.6 604.4 438.6 609 438.6 611 437 615.2 435.8 615 435.6 617.3 435.7 617.7 437.6 618.1 439.6 617 441.9 618 446.1 615.7 447.3 614.4 453.5 610.7 455.9 610.3 457.5 609.1 464.5 610.7 465.1 609.4 467.4 608.7 468.1 605.6 466.6 602.9 467.7 601.2 468.4 595.5 470.5 592.2 472.7 592.5 475.5 600.5 475.5 601.6 477.6 602.3 479.4 599.6 483.3 595.1 487.9 597.7 489.1 597 492.2 591.7 490.1 589.5 491.1 586.8 493.5 583.5 496 584 502.4 580 499.2 575.2 500.5 574.7 504.2 575.9 505.3 572.6 506.2 574.5 508.7 571.5 509.1 570.2 512.1 573.5 513.7 577 516 574.6 519.5 581.4 526.3 581.4 528.3 582 534.6 580.3 536.1 577.6 537 577.6 538.3 573.5 544 570.5 547.4 568.3 548.6 569.9 549 569.7 551.6 566.2 555.7 562.4 566.8 553.3 569 550.8 567.1 549.7 562.7 553.2 562.4 555.5 559.8 556.9 560.6 554 560.2 552.7 563.6 546.8 566 545.6 569.1 542.5 573.8 542.3 574.4 546.1 571.5 550 578.2 547 582.3 546 589.1 543.5 591.6 543.2 597.5 540.7 599.3 538.1 597.3 536.6 597.5 535.2 602.2 536.2 605.2 530.4 609 529 611.9 527.1 614.8 522.4 614.3 521.7 611.9 524.2 611.9 521.9 613.5 519.1 618.3 515.1 620.9 513.7 619 509.4 619.4 508.5 614.9 498.9 614.6 495.6 615.4 492.8 617 490.2 621.6 484.8 627.8 481.6 629.1 481.8 634.7 479.6 635 479.5 632.5 473.5 626.8 472.1 626.1 470.2 618.9 468.6 618.6 464.8 615 462.4 613 462.3 608.7 460.1 608 459 606.7 458.5"></polygon>
                    <polygon id="DN" stroke="#C3C3C3" stroke-width="2" fill="#ECECEC" points="160.5 532.8 158.2 533.4 156.4 530.7 157.7 528.4 157.4 526.7 153.6 528.3 151.3 530.4 152.5 531.4 152.9 533.6 153 533.9 153.7 535.4 158.1 536.6 159.2 537.6 160.3 535.8 160.3 534.5 160.5 532.8"></polygon>
                    <polygon id="KA" stroke="#C3C3C3" stroke-width="2" fill="#ECECEC" points="304.6 599.9 302.5 601.2 299 597.9 299.1 596.3 295.3 596.5 295.1 599.6 293.4 600.5 290.4 604 286.4 604.5 283.9 608.1 281.4 615 278.6 615.2 279.1 616.7 277.6 617.9 275.8 621.1 273.5 618.9 269.2 621.2 266.6 623.6 264.3 624.2 264 629.3 266.2 632.7 263.1 633.4 260 632.3 257.6 632.5 251.1 634.4 247.6 631.1 246 632.6 240.9 628.8 238.1 632 239.3 635.7 240.4 644 240.1 646.7 237.7 645.3 236.5 646.6 227.9 647.1 227.4 649.1 223.7 649.9 222.3 648.8 218.2 647.1 216.5 649.4 213.9 650.3 214.4 653.8 212.5 653.6 206.9 657.6 207.8 658.6 204.7 660.8 202.8 658.6 199.6 658 199.2 659.2 196.7 661.4 193 662.1 194.3 664 197 666.5 196.4 666.8 196.8 670.1 200.1 671.6 200.2 677.1 198.8 677.1 198.1 678.6 199.1 680.8 198.1 682.5 197 686.7 195.3 689.2 191.3 688.5 189 690 187.7 692.6 187.7 693.1 188.2 693.2 190 692.7 192 693.5 193 697.5 192.2 699.1 194.4 705.6 192.5 707.8 193.5 708.4 193 714 191.5 717.8 186.8 719.7 187.2 720.8 187.4 723.5 192.2 725.7 194.6 732.9 195.5 732.5 197.5 740.6 199.2 744.9 200.1 750.2 203.1 754.7 205.1 762.3 206.5 761.6 208.1 763.6 206.2 763.9 206 768.1 206.8 770.4 206.6 772.8 207.8 777.5 209 784.9 210.5 791.7 214.5 791.6 212.2 792.8 210.7 792.5 211.7 794.4 211.7 795.1 214.7 794.8 215.5 796.6 222.5 800.9 224.4 800.7 225.8 801.9 225.3 803.4 228.4 807 229.8 811.8 231.7 812.6 235 816.5 242.8 820.5 243 821.6 245.1 824.1 246.9 824.6 252.9 823.9 253.7 826.6 258.6 829.6 259.5 829.4 264.7 833.9 265.2 834.6 265.4 834.2 268.3 832.7 271.8 835.9 279.2 836.1 282.3 830 286.4 829.5 288.3 831.5 291.5 829.9 296.7 830.5 299.6 830.4 300.8 829.1 302.5 825.6 307.1 824.8 312.1 819.2 309.8 816 302.6 815.7 301.7 814.2 306.5 808.7 307 806.5 306.8 799.2 308.8 799.1 312.1 797.6 313.4 792.8 317.3 792.4 320.3 794.5 321.3 793.1 325.9 795.7 328.2 796.2 328.5 795.9 329 792.8 330 793.2 333.3 790.9 335.4 792.4 334.6 789.6 336.8 785.9 337.9 785 339.9 778.7 339.4 777.1 338.1 777.9 334.7 776.2 333.4 776.3 332.8 769.1 330 766.9 326.7 766.5 325 764.6 322.7 764.4 322.3 763.3 323.9 762.4 323.2 761.1 323.1 757.4 321.5 756.4 319 757 317.8 758.3 318.4 754.2 316.9 755 313.3 754.4 312.7 757.4 309.6 759.4 309.2 760.5 307.5 760 303.2 762.7 301.1 762.3 300.6 759.4 299.6 758 292.8 756.1 289.5 757.4 290.6 759.8 287.4 761.2 284.6 758.1 286.4 755.2 283.8 749.3 281.6 746.7 283.3 745.5 285 746.1 285.8 749.6 290.3 752.1 296.3 752.2 297.4 754.4 299.8 755.4 297.5 750 299.8 746.2 301.2 746.1 301.7 741.9 299.2 743.8 297.4 742.3 291 740.1 288.9 742.4 289 743.3 285.1 743.5 283 743.1 281.3 738.6 283.9 736 277.8 732.1 277.4 730.5 280 721.8 280.2 719 277 717.5 278.3 713.5 281.7 715.4 287.5 716.7 289.6 714.8 290.9 711.4 290 706 287.2 704 286.9 694.1 289.4 693.6 287.8 686 289.2 684.3 292.2 682.7 301.9 683.3 303.1 680 303.4 672.8 304.8 671.3 304.9 668.9 300.2 668.1 295.6 665.7 301.1 661.1 301 654.1 301.6 653.4 302.8 644.8 301.6 641.5 299.8 638.4 304.6 631.5 307.1 629.3 309.3 628.7 310.3 626.8 307.1 626.8 306.9 625.9 301.1 624 303.5 620.7 304.7 620.2 304.4 617.9 308.2 613.7 308.4 612.6 307.3 604.9 306.6 603.2 307.1 600.8 306 600.2 304.6 599.9"></polygon>
                    <polygon id="MH" stroke="#C3C3C3" stroke-width="2" fill="#ECECEC" points="410 493.1 408.3 493.7 404.7 491.5 401.1 490.8 400.8 488.1 394.7 483.4 391.5 484.2 390.6 485.3 383 486.8 381.8 485.1 380 484.6 374 486.5 373.1 486.1 370.5 481.8 365.9 481.2 360.4 483 352.6 485 351.7 487.6 346.2 488.5 342.5 488.6 338.2 486.9 336.6 487.6 335.5 484.1 332.8 483.8 328.7 485.8 325.9 488.4 322.7 490 318.8 491.3 315.3 490.5 311.7 492 311 491.5 307.5 491.8 306.2 490.7 305 491.6 302.9 487.3 303.8 486 307.7 486.1 306.3 479.9 304 478.2 299.8 478.1 296.3 480.5 292.6 479.8 291.1 480.2 282.6 484.1 281.3 488.3 279.7 490.6 276.5 493.1 277.1 496.3 272.8 498.3 269.8 501.3 261.5 502 259 499.6 259.8 495.1 256.8 492.1 251.5 490.8 244.4 491.4 232.7 491.2 227.1 489.4 226 487.5 222.7 484.2 212.5 482.6 209.7 481.1 206.6 478.6 205.9 470.9 202.9 468.2 201.5 469.4 196.6 471.5 194.9 470.7 194.1 470.5 191.9 470.9 183.5 474.3 183.9 480.9 181.4 482 183.7 485.9 194.3 483.9 195.8 484.8 198.9 483.9 199.1 486 197.4 486.9 192.6 488.1 191.2 487.5 188 490 186.2 493.8 182.3 494.5 181.8 496.1 176.9 497.8 177.9 499.5 184.5 504.7 185.8 510.7 185.5 512.2 182.3 515.4 181.6 517.6 179.8 518.5 173.3 516.3 169.7 513.7 167.7 515.5 170.3 518.6 170.5 519.8 167 525.7 167.8 526.4 167.4 532.4 163.9 531.8 161.2 534.7 160.3 534.5 160.3 535.8 159.2 537.6 158.1 536.6 153.7 535.4 153 533.9 151.3 534.6 149.1 534.7 147.5 534.7 145 535.7 145 535.7 143.3 540.3 143.5 546.5 144.8 554.6 150.1 554.9 146.3 556.3 146.2 566.3 148.1 564.7 147 573.2 148 575.1 152.9 568 152.5 570.5 153.3 571.4 153.1 573.8 155.5 573.2 151.4 575.5 150 577.4 153.9 580.3 152.4 581.5 148.8 580.7 148.3 584.9 150.4 589.4 149.9 590.5 150.1 596.4 151.7 598 155.2 599.4 154.8 601.6 150.6 599.9 151.6 602.1 151.9 606.2 153 610 156.4 618.4 155.7 620.1 158.8 623.8 157.6 624.3 157.6 630.7 160.2 634.5 158.1 633.7 160.9 642.6 161.3 645.1 160.5 648.9 161.8 658.8 163.6 660.2 162.3 663.4 164 665.7 164.6 671.1 165.7 672.8 167.3 673.3 166.3 676.9 168.1 679.1 167.2 680.2 173.8 689.9 174.1 689.9 181.4 690.5 181.7 692.3 184.3 693.9 186.4 693.1 187.7 693.1 187.7 692.6 189 690 191.3 688.5 195.3 689.2 197 686.7 198.1 682.5 199.1 680.8 198.1 678.6 198.8 677.1 200.2 677.1 200.1 671.6 196.8 670.1 196.4 666.8 197 666.5 194.3 664 193 662.1 196.7 661.4 199.2 659.2 199.6 658 202.8 658.6 204.7 660.8 207.8 658.6 206.9 657.6 212.5 653.6 214.4 653.8 213.9 650.3 216.5 649.4 218.2 647.1 222.3 648.8 223.7 649.9 227.4 649.1 227.9 647.1 236.5 646.6 237.7 645.3 240.1 646.7 240.4 644 239.3 635.7 238.1 632 240.9 628.8 246 632.6 247.6 631.1 251.1 634.4 257.6 632.5 260 632.3 263.1 633.4 266.2 632.7 264 629.3 264.3 624.2 266.6 623.6 269.2 621.2 273.5 618.9 275.8 621.1 277.6 617.9 279.1 616.7 278.6 615.2 281.4 615 283.9 608.1 286.4 604.5 290.4 604 293.4 600.5 295.1 599.6 295.3 596.5 299.1 596.3 299 597.9 302.5 601.2 304.6 599.9 306 600.2 306.2 599.4 304.4 597.6 306.4 593.8 308.4 591.2 309.8 591.1 311.3 587.1 314.1 585.9 315.7 577.6 314.2 576.3 313.1 573.7 314.2 572.9 317 565.1 318.1 564.3 321.1 564.5 321.8 565.7 327.2 562.7 329.4 559.7 331.1 559.3 332.4 554 334.9 550.5 332.4 544.5 335.3 546.9 337.4 547.7 349.8 550.4 350.6 553 354.8 555.7 358.4 553.5 360.6 553.1 362.9 554.7 367.3 555.9 367.7 556.6 372.9 557.1 373.7 557.8 376.1 555.8 381.5 555 383.7 557.8 386 558.9 386.9 564.8 386 567.7 386.5 569.9 383.8 573 386.9 577 387.4 583 388.5 583.4 391.5 586.5 396.9 586.4 397.5 585.9 397.4 585.3 400 581.1 398 578.6 398.2 575.2 400 573 403.7 565.8 406 563.3 408 562.3 408.5 563.7 414.6 564.8 415.9 564.2 418.3 558.7 416.4 556.6 412.2 554.9 409.6 550.9 406.2 547.2 404 548.8 402 547.9 404.4 546 403.4 542.7 406 543.4 406.7 538 405.9 535.8 402 534.8 403.3 531.5 407.7 529.6 409.2 522.9 408.9 519.4 404.6 518.8 406.6 513.1 406.1 507.7 403 506.8 402.9 503.2 403.7 499.8 410.1 495.5 410.5 494.7 410.5 493 410 493.1"></polygon>
                    <polygon id="AS" stroke="#C3C3C3" stroke-width="2" fill="#ECECEC" points="869 276.4 871 276.1 874.1 273.4 878.4 267.9 881.1 268.2 887.7 266.4 891 266.1 893.5 261.8 891.1 260.5 890 262 888.9 256.7 885.7 254.1 885.7 249.2 889 243.9 889.5 241.2 881.8 241.9 875.3 246.1 872.7 246.8 869.6 246.1 867.7 247.3 858.7 251.3 844.5 258.5 843.6 257.7 840.7 258.7 837.8 257.3 836.2 258.3 837.7 261 831.4 267.5 825.9 274.2 826 277.2 823.3 279.6 820.2 281.6 814.9 283.2 812.1 281.9 801 283.8 798.5 283 797.1 281.7 794.2 280.7 789.8 280.6 777 286.2 771.4 286.6 771.2 287.8 770.2 289 763.5 289.2 759.7 291.4 753.6 291.5 752.7 290 749.6 290 747 293 744.9 292.4 739.4 292.4 735.8 293.5 728.6 294.2 724.5 294 716.6 290.2 711.3 292.8 710.7 294.9 701.5 297.1 701.5 297.1 702.9 303.7 701.8 309 698.9 314.9 696.4 316.1 696.4 316.9 699.6 319.6 699.7 321.1 702.6 325.7 701.4 328.1 703.3 337.7 703.4 340.4 703.1 342.1 706.3 337.7 707.8 337.6 707.5 329.2 709.9 325.6 712.2 323.4 719.7 321.1 723.6 321.1 726.5 323.5 728.6 323.7 732 322.4 734 323 739.3 323 742.8 326.3 746.4 325 748.5 329.5 751.7 325.6 756.1 323.9 755.2 323.6 758.5 318.5 760 318.8 760.4 322 762.4 321.2 764.8 316.5 767.6 317.4 776.6 315.7 779.5 315.6 779.8 316.7 777.5 319 778.4 320.8 777.5 325.5 778 329.9 784.6 326.7 789.3 330.1 791.8 332.6 794.6 331.7 792 336.1 795.8 338 799.2 341.3 799.7 344.8 795.9 346.4 795 347.6 792.1 348 786.9 353.4 787 353.7 790.3 355.9 790.8 357.1 787.3 359.3 784.2 357.5 782.1 357.7 782.8 361.6 780.8 370 780.7 370.1 783.6 372.1 784.7 377.1 784.2 380.3 786.4 380.5 788.7 380.3 790.6 380.4 790.9 383.3 792.9 383.9 796.9 380 800.5 371.1 803.1 374.7 806.3 374 808.3 374.3 809.1 373.6 808.9 373.1 810.1 367.9 811.2 367.2 811.1 363.8 810.5 363.2 811.3 358.9 813.8 357.5 815.6 352.7 815.2 350.4 817.2 347.9 820.1 341 820.1 341 820.2 340.3 815.9 333.2 821.2 327.3 826.3 320.2 825.3 318.9 827.4 317.5 829.3 317.8 830.6 321.2 832.2 320.8 834.8 318.2 834.3 314.5 835.1 312.7 834.9 308.9 838.4 303.4 840.2 298 842.7 296.2 844.5 297.5 846.6 294.6 846.5 293.3 848.3 290.7 853.9 288.3 857.7 285.2 861.3 280.2 864.5 280.5 868.4 277 868.7 276.7 869 276.4"></polygon>
                    <polygon id="MN" stroke="#C3C3C3" stroke-width="2" fill="#ECECEC" points="820.1 341 820.1 341 817.2 347.9 815.2 350.4 815.6 352.7 813.8 357.5 811.3 358.9 810.5 363.2 811.1 363.8 811.2 367.2 810.1 367.9 808.9 373.1 809.1 373.6 809.3 373.9 810.1 375.6 809.3 383.1 813 385.9 817.3 384.9 818 386.6 819.4 385.9 819.4 385.7 820.7 383.9 824.6 388.3 829.5 386.3 833.7 386.5 835.2 388.2 842.2 388.8 845.7 391.2 848.2 385.6 848.8 382.4 851.5 372.4 851.3 371.3 853.4 365.8 855.3 363.9 856.3 360 860.1 353.2 861.3 346.8 860.3 344.4 856.6 343.3 855.5 340.9 857.4 334.3 858 333.6 854.7 332.2 854.1 331.1 854.7 325.3 847.4 331.9 843.3 332.7 837.7 331.1 834.6 331.2 829.6 332.3 831.1 335.3 824.8 343.9 820.1 341 820.1 341"></polygon>
                    <polygon id="NL" stroke="#C3C3C3" stroke-width="2" fill="#ECECEC" points="868.7 276.7 868.4 277 864.5 280.5 861.3 280.2 857.7 285.2 853.9 288.3 848.3 290.7 846.5 293.3 846.6 294.6 844.5 297.5 842.7 296.2 840.2 298 838.4 303.4 834.9 308.9 835.1 312.7 834.3 314.5 834.8 318.2 832.2 320.8 830.6 321.2 829.3 317.8 827.4 317.5 825.3 318.9 826.3 320.2 821.2 327.3 815.9 333.2 820.2 340.3 820.1 341 820.1 341 824.8 343.9 831.1 335.3 829.6 332.3 834.6 331.2 837.7 331.1 843.3 332.7 847.4 331.9 854.7 325.3 854.1 331.1 854.7 332.2 858 333.6 858.2 333.3 863.3 329.1 863.9 329.1 868.3 321.2 867.3 317.6 870.5 313.3 867.2 301.8 867.4 298.2 866.7 297.1 868.5 293.8 869.2 291.1 872.2 290 872.4 290 870.5 284.1 870.9 279.6 869 277.7 868.7 276.7"></polygon>
                    <polygon id="ML" stroke="#C3C3C3" stroke-width="2" fill="#ECECEC" points="702.9 343.1 703 345.6 704.3 347.6 706.6 347 714 349.7 719.1 350.6 734.1 350.3 735.5 351 746.3 348.9 751.1 349.1 763.4 350.3 765.9 348.7 780 349.5 780.5 350 786.8 352.7 786.9 353.4 792.1 348 795 347.6 795.9 346.4 799.7 344.8 799.2 341.3 795.8 338 792 336.1 794.6 331.7 791.8 332.6 789.3 330.1 784.6 326.7 778 329.9 777.5 325.5 778.4 320.8 777.5 319 779.8 316.7 779.5 315.6 776.6 315.7 767.6 317.4 764.8 316.5 762.4 321.2 760.4 322 760 318.8 758.5 318.5 755.2 323.6 756.1 323.9 751.7 325.6 748.5 329.5 746.4 325 742.8 326.3 739.3 323 734 323 732 322.4 728.6 323.7 726.5 323.5 723.6 321.1 719.7 321.1 712.2 323.4 709.9 325.6 707.5 329.2 707.8 337.6 706.3 337.7 703.1 342.1 702.9 343.1"></polygon>
                    <polygon id="PB" stroke="#C3C3C3" stroke-width="2" fill="#ECECEC" points="284.7 157.3 281.7 154.7 281.7 151.5 281 150.5 280.3 145.6 276.2 144.8 273.9 140.2 272.4 143 267.1 142.2 265.1 135.4 260.8 127 262.2 126 259.9 121.8 255.7 119 250.4 117.2 252 113.5 252 111.1 260.8 105.9 259.4 102.4 259.1 102.3 258.8 102.6 255.5 105 250.6 107.1 248.4 109.6 246.6 107.8 242.2 108.4 243 109.1 243.6 111.6 241.9 114.8 238.8 115.4 235.9 117.1 227.5 118.8 226 121.6 223.4 121.3 219.2 125.1 216.8 129.4 218.6 133 220.1 139 218.8 140.7 216.6 148.1 217.4 150.2 219.9 150.3 221.1 151.4 218.2 153.4 218.1 154.1 214.3 156 209.1 160.2 208.7 161.4 205.3 165.6 203.7 166.2 197 174.8 194.9 176.3 196.4 177.1 198.1 181.1 198 181.5 198.6 183.8 196.2 187.4 196.7 189.3 208.3 190.2 211.3 190.2 215.4 190.8 217.3 191.3 218.9 192 221.4 190.2 224.7 189.6 230.2 193.7 233.6 192 233.6 195.6 236.9 196.8 237.6 198.1 235.5 200.2 237.8 204.7 239.4 204 240.9 200.4 244.4 196.2 249.1 197.8 252.6 197.4 252.7 196.5 256.1 195.9 257.9 198.4 262.4 198.3 265.4 196.1 267.5 193.3 267.1 191.7 269.3 186.5 273.5 185.7 274.7 183.6 276 186.6 281.7 183.1 279.9 181.4 278.5 181.4 282 179.7 284.8 177.6 285.3 175.1 287.7 175.2 289.8 177.1 290.2 172.2 290 169.5 288.1 166.5 287.8 166.4 287.3 166.3 284.8 164.9 283.9 164.1 286.2 162.3 287.4 162.6 287.9 161.9 287.9 160.6 287.1 160.3 286.4 158.8 286.1 158.5 284.7 157.3"></polygon>
                    <polygon id="RJ" stroke="#C3C3C3" stroke-width="2" fill="#ECECEC" points="211.3 190.2 208.3 190.2 196.7 189.3 196.2 187.4 198.6 183.8 198 181.5 197.9 182.1 191.3 186.8 185.6 187.9 180.1 190.2 174.8 204.2 168.6 214.8 166.6 217.3 164.2 221.5 146.9 229.7 142.8 234.5 140.6 241.4 137.6 245.8 133.6 248.8 130.9 251.9 129.5 258 119.4 260.9 108.8 261.4 106.4 262.1 98.7 265.5 96.1 266 92.3 264.5 90.3 259.7 90.5 258.5 86.5 254.2 85.6 253.9 80.7 255 78.8 256.8 70.1 268.6 66.4 272.1 64.3 275 55.2 282.5 53.7 284.6 50.8 295.7 51.9 298.2 56.7 300.5 61.4 304.1 69.1 304 72.3 306.2 72 311.8 70.7 318.4 68.8 321.2 68.6 327.2 72.5 332.4 73 334.3 75.2 336 80.7 336.5 84.5 335.5 86.4 336.8 85.7 345.3 87.6 348.7 88.2 351.1 92 355.8 92.8 360.6 96 367.5 97 370.6 97.5 371.6 99.8 372.8 110.9 372.3 114.8 372.6 116.3 373.5 126.3 373.6 129.2 372.1 131.2 373.9 134.6 375 138.7 374.9 135.9 376.1 137.2 377.4 143.4 381.7 144 379.9 145.8 379.6 149.7 381.9 150 382.9 156.6 385 158.4 384.4 160 380.5 163.1 380 163 383 166.9 384.3 163.4 387.5 162.4 389.8 163.5 392.9 165.8 394.6 167.8 397.4 171.2 394.3 172.2 396 173.2 400.1 171.2 401.9 173.5 407.6 175.1 408.3 175.7 412.2 178.4 411.2 179 414.9 182 418.8 185 418 186.6 420.5 189.3 420.8 194.4 424.5 195.5 428 197.9 427.6 201.4 431.8 201.6 432.5 202.2 432.1 204.4 431.3 206 431.7 214.4 428.3 212.7 426 208.4 424.5 212 419.2 215 418.1 219.4 415.5 222.2 410.7 222.3 408.8 221.4 406.3 221.3 404 222.9 398.9 223.6 397.9 221.5 394.8 217 389.9 217.3 386.3 219.2 384.7 219.1 382.3 216 381.3 218.2 375.5 217.9 372.1 218.9 372.2 221 375.6 223.8 375 224.2 371.3 219.9 370.6 219.7 366.2 224.8 368.7 228.3 367.8 228.5 364.8 236 362.1 234.9 364.2 235.3 366.7 233.6 366.3 235 368 237.9 367.5 238.4 368.3 236.3 369.6 231.9 369.4 232.4 373.8 235.2 373.8 239.7 374.6 250.6 372.8 251.6 374.2 251.8 376.6 253.3 378.4 253.4 381.4 249.2 382.9 248.9 383.9 250.9 389.8 249.6 394.4 250.9 395.2 247.8 399.2 244.8 399.5 242.2 397.8 241 398.8 240.5 401.4 246.7 406.7 248.3 402.3 256.3 401 257.2 397.7 259.9 396.1 261.5 388.2 263 387.2 264.8 389.8 267.3 389.7 273.3 391.9 275.4 391.7 277.6 389.1 279.1 389 278.7 391.5 282.2 394.1 285.4 393.6 286.4 391.7 283.9 387.1 283.7 379.9 284.4 379.5 288.1 382.2 291.9 380.1 291.5 377 290.5 375.3 286.1 373.7 283 370.4 286.2 368.8 285.3 364.9 287.5 362.9 290.2 361.7 296.3 360.3 300.9 361 303.2 357.4 301.9 354.7 301.9 350.2 301.4 349.5 297.6 350.7 296.2 352.8 293.8 352.4 290.4 353.6 287.6 353.9 278.6 350.9 275 345.3 273.8 338.9 274.9 338.5 276 334.9 281.1 332.5 291.1 323.9 297.5 321.3 301.2 317.5 304.2 317.1 309 314.2 317.6 309.8 322.3 306 326.2 303.6 328.8 301.4 329.4 301.1 329.3 300.9 329.3 299.3 330.9 297.7 327.9 296.7 323.7 299.3 323 298.6 319.2 297.9 318.3 298.3 314.6 297.2 311.6 299 303.7 302.2 303.9 299.6 314.1 294.8 312 293.5 310.1 293.8 307.3 292.1 309.5 290.6 312.2 287.8 310.6 283.6 305.2 280.7 302.1 273.7 302.1 272 300.9 268 300.5 266.5 299.6 266.4 298.9 267.1 296.6 266.2 295.3 267.1 292.9 266.6 293.8 268.9 290.7 271 288.9 270.1 289 266 289.8 262.8 289.3 259.2 289.7 254.3 287 251.7 286.3 251.7 280.5 256.9 280.9 259.1 278 260.5 274.3 257.6 274.5 254 270.8 255 266.7 257.1 266 256.9 265.6 266.3 264.4 265.4 259.3 264.5 259.3 259.7 261.1 256.3 258.4 255 261.4 253 261.4 251 255.1 244.8 247.3 236 246.5 233 245.2 224.2 243.9 223.7 242 221 241.4 218.2 242.4 217.7 239.5 213.9 237.9 215.2 231.7 215.5 231 214.2 228.8 214.2 226.9 210.9 224.2 210 222.5 211.2 220.7 211 216.1 207.6 217 207.6 217.3 199.8 217.8 198.6 213.9 198 213.9 195.3 216.3 193.6 215.3 191.9 215.4 190.8 211.3 190.2"></polygon>
                    <polygon id="UP" stroke="#C3C3C3" stroke-width="2" fill="#ECECEC" points="311.1 176.9 311.1 177 310.6 180.6 306.6 184.2 305.3 186.3 300.2 190.8 296.7 198.6 297 199.4 295.2 203.2 295.6 204.4 294.3 205.6 294.5 207.4 295.7 207.7 296.5 210.1 296.9 221.5 297.7 226.3 298.8 228.6 298.4 229.3 298.9 230.4 299.2 232.5 301.7 234.8 301.5 240.3 302.3 241.8 302.5 242.2 305.7 245 306.3 244.8 306.6 248.9 308.8 251.5 307.7 256.7 306.5 258.3 307.6 259.2 306.2 263.9 305.1 263.7 301.3 265.8 300.5 266.5 300.9 268 302.1 272 302.1 273.7 305.2 280.7 310.6 283.6 312.2 287.8 309.5 290.6 307.3 292.1 310.1 293.8 312 293.5 314.1 294.8 303.9 299.6 303.7 302.2 311.6 299 314.6 297.2 318.3 298.3 319.2 297.9 323 298.6 323.7 299.3 327.9 296.7 330.9 297.7 329.3 299.3 329.3 300.9 329.4 301.1 330 301.1 342 303.5 342.6 302.8 347.1 302.5 349.9 305.1 352.9 305.7 353.2 307.8 355.9 312.6 356.6 315.6 356.1 319.2 353.1 320.8 351.1 331.5 346.4 337.9 346.8 342.5 334.6 345.6 333.3 348.7 331.1 350.6 333.9 357 334.2 359.4 333.5 364.2 328.4 368.7 329.9 373.6 331 375.7 331.5 384.1 333.8 386.3 333.3 388.4 334.4 389.4 336.8 388.2 337.1 386.6 339.8 386.4 343.2 389.4 348.7 392.3 350.6 390.5 351.7 387.9 353.8 385.9 351 378.6 346.3 377.8 345.7 376.6 346.2 371.5 345.5 369.4 343.3 366.3 341.2 357.6 340.6 352.8 341.9 350.5 344.1 350.9 346.8 350.1 346.1 347.7 348.4 347.5 349 350.4 350.3 349.4 350.5 347 352.1 346.6 353.6 349.7 353.5 351.5 350.7 356.7 352.9 357.3 355.4 355.2 356.3 355.8 355.7 358.9 357.7 358.2 359.3 359.9 364 359.3 363.8 353.3 364.7 352.2 364.3 355.2 366.9 355.2 368.7 356 365.9 359.8 367.6 362.4 368.1 359.9 373.6 358.9 374.9 359.5 378.8 359.7 380.5 360.3 382.9 358.8 382.3 358.1 390 352.3 392.6 351.6 393.8 350.4 396.4 350.4 397.8 355 400.4 356.9 400.8 358.2 395.9 362.7 400.3 364.5 401.2 363.3 402.1 364.4 402.8 362.5 402.1 360.8 405.8 359.6 408.2 362.4 410.5 362 409.5 359.4 411.9 359.3 414.7 357.3 414 360.8 412 365.1 414.5 365.8 416.2 365.4 418.4 366.4 419.6 366 422.9 368 425.6 366.2 425.3 364.3 426.8 362.3 427.5 358.8 429.6 358.7 431.9 360.9 434.7 360.5 436.9 357.6 438.2 361.4 444.8 363.7 448 365.2 447.7 366.5 450.7 369 454 369.7 455.6 371 460.7 371.7 460.9 374.5 462.6 374.8 462.2 377.2 465.5 377.1 466.1 375.9 470 375 472.5 375 474.6 374 477 375.7 478.8 378.8 476.1 379.9 477.3 387.6 476.4 391.7 474.5 392.7 476.6 395.5 477.7 397.8 478.8 399.2 480 399.5 483.2 401.9 489.1 402 492.7 400.3 493.9 396.9 495.7 394.6 496.1 394 496.8 391.9 498.5 389.2 499.6 385.8 498.1 383.7 497.8 381.4 499 380.6 501.8 380.2 501.8 379.2 501.3 375.1 501.6 372.6 495.9 367.8 496 363.5 494.9 361.8 495.7 356.4 497.6 354.9 509.8 347.3 510.3 346.4 515.5 342.8 517.8 339.8 520.5 337.6 523.7 340.6 525.9 340.5 526 338 527.8 336.4 530 338 534.7 337.3 535.3 335 532.8 332.9 528.8 331.3 523.5 330.2 520.7 326.4 517.5 324.7 515 321.1 520.6 318.7 520.8 314.1 518.4 313.7 512.4 311.5 513.3 309.3 516.7 308.6 518.2 305.6 527.4 305.4 522.4 301.2 521.8 297.1 516.8 296.1 515.3 293.4 515.3 291.9 512.3 286.8 512.3 285.7 509.3 281.4 509.2 281.3 500.9 277.7 494.4 277.4 493.9 279.5 491.2 282.3 486.3 278.4 482.5 278.5 478.2 277 474.2 276.8 470.8 269.6 466.9 270.6 461.2 269 458.7 267.8 454.8 264.8 450.9 262.6 449.2 262.4 446.4 264.8 442.1 262.8 439.4 260.7 433.2 257.4 432 255.2 427.6 253.9 423.5 247.2 418.1 246 416.8 244.8 411.2 241.9 404.2 237.4 404 236.3 401.8 237.7 402.1 239.9 393.3 234.1 392.2 234 389 231.5 388.8 231.4 387.4 233.8 385 234.4 383.2 233 382.9 231.5 381.2 232 381.2 229.9 378.4 229.2 377 230.4 369 230.5 367.6 227.3 366.4 226.3 359.9 223 359.1 221.2 356.8 219.9 352.3 221.5 350.9 217.7 346.1 215 348.4 214.1 352.1 211.7 343.9 206.5 342.2 205 338.7 200.1 335.7 198.7 332.8 194.1 331 192.2 328.7 192.9 330 199.1 328.6 201.7 327.1 202.4 323.3 200.1 318.5 202.1 316.8 198.4 315.9 191.7 318.8 185.7 322.3 182.4 316.2 179 313.5 176.5 312.2 176.3 311.1 176.9"></polygon>
                    <polygon id="UT" stroke="#C3C3C3" stroke-width="2" fill="#ECECEC" points="351.3 145.2 355 150.5 353 151.5 351 151.4 348.9 148.7 342.9 147.6 339.4 147.9 336.3 146.1 333 145.5 327.8 148.1 322 149.8 316.6 156 317.6 159.9 316.7 159.6 315 162.8 315.9 164.7 316.2 169.2 317.9 172.6 311 176.7 311.1 176.9 312.2 176.3 313.5 176.5 316.2 179 322.3 182.4 318.8 185.7 315.9 191.7 316.8 198.4 318.5 202.1 323.3 200.1 327.1 202.4 328.6 201.7 330 199.1 328.7 192.9 331 192.2 332.8 194.1 335.7 198.7 338.7 200.1 342.2 205 343.9 206.5 352.1 211.7 348.4 214.1 346.1 215 350.9 217.7 352.3 221.5 356.8 219.9 359.1 221.2 359.9 223 366.4 226.3 367.6 227.3 369 230.5 377 230.4 378.4 229.2 381.2 229.9 381.2 232 382.9 231.5 383.2 233 385 234.4 387.4 233.8 388.8 231.4 388.2 231.3 387.4 229.4 387.7 227.5 389.5 225.9 389.7 224.2 391.5 220.8 393.3 220.7 393.2 217.8 394.5 218.1 395.1 214.3 393.1 210 396.5 206.8 398.3 204 397.3 199.7 398.6 198.1 400.4 197.6 404.4 191.8 408.5 189.8 413.6 182.9 417.1 183.3 415.4 180.8 410.4 179 404.6 174.3 399.2 173 396.1 171.3 392.7 170.6 391.2 167.3 392.1 164.3 391.2 163 387.9 163.1 386.1 160.9 383.9 160 380.8 156.9 377.9 156.3 372.9 157.8 370.9 156.8 369.8 155.1 367.8 154.9 366.5 152.4 364.2 151.3 363.3 148.3 359.3 142.1 355.5 140.9 354.7 143.7 351.7 144.9 351.3 145.2"></polygon>
                    <polygon id="JH" stroke="#C3C3C3" stroke-width="2" fill="#ECECEC" points="638.3 352.1 632.4 351 631.4 349.7 628.3 350.5 626.9 353.9 623.4 354.1 622.1 358.2 620.5 358.2 618.4 359.7 617.8 365.6 616.5 372.5 614.8 375.5 611.6 374.6 610.8 376.6 608.4 376.8 607.3 376 603.6 377.4 601 376.8 597.9 380.9 596.6 384.7 591 380.8 592 379.2 589.2 376.9 585.8 376 585 372.7 583 370.7 580.5 372.4 578.9 372.6 576.2 370.1 572.6 370.8 571.9 373.3 570.7 374.4 570.9 377.7 568.4 377.8 565.3 379.6 559.3 380.4 555.3 382.6 553.1 385.7 552.4 384 550.4 384.8 546.5 385.2 545.8 382.6 543.2 380.6 536.5 384.3 534.3 387.4 533.2 387.6 527.5 382.8 527.8 381.8 523.6 380.5 522.9 381.6 520.7 381.5 518.5 376.6 517.5 376.3 515.7 379 511 379.6 509.1 380.8 502.3 380.2 501.8 380.2 499 380.6 497.8 381.4 498.1 383.7 499.6 385.8 498.5 389.2 496.8 391.9 496.1 394 497.8 394.5 501.8 395.9 502.9 400.3 508.6 405.7 509 409.2 513.2 413.1 515.2 413.9 517 411.1 518.1 415.4 517.1 416.5 517.4 420.9 518.2 420.1 519.8 422.8 519.6 425.5 520.2 429.3 522 431.5 522.6 433.6 529.3 434 525.8 443.5 522.2 446.2 521.2 446.2 518.5 449.4 518.3 449.9 519.6 450.1 521.6 451.2 529.2 457.1 533.4 456.9 536.1 453.8 543.5 453.3 549.7 453.2 554.4 450.4 555.2 452.4 555.4 458.2 552.2 464.2 555.3 463.9 560.4 466.7 561.9 464.9 567.8 462.2 570.8 463.9 575.1 464.9 577.3 464 578.4 466.1 580.3 468 583 466.6 584.8 463.7 585 460.3 584.2 458.1 584.8 453.5 586.6 447.7 588.4 449.7 595.2 453.1 595.8 454.1 599.6 455.6 600.8 455.1 606.7 458.5 608 459 608.2 458.8 610.1 458.2 610.6 456.9 613.2 455.6 611.7 454.3 610.1 451.1 608.5 449.7 609.9 448.1 608 446.1 605.4 445.8 604 442.9 601.9 441.2 599.5 440.7 597.6 438.4 599.1 431.6 592.8 431.2 589.7 431.6 584.8 426.8 580.1 425.6 578.7 423.8 579.7 417.2 577.9 415.8 578.7 415 583.5 414.2 583.7 411.3 586.7 411.7 589.7 415.4 592.6 416 594.7 413.6 596.8 410.1 604.4 407.1 608.2 406.3 610 404.1 609.6 402 611.1 399.6 616.1 401 620 402.9 621.1 402.6 620.3 400.2 623.6 400.2 624.6 397.4 622.9 394.4 626.3 395.7 631.2 393.6 631 390.9 633.5 391.5 636.2 387.7 635.1 386.6 638.2 384.1 639.8 380.5 640.4 377.6 639.2 374.1 642.7 374.5 643.2 371.9 641.6 368.5 640.9 368.4 642 362.2 640.5 358.4 639.2 357.2 638.5 353.1 638.5 352.6 638.3 352.1"></polygon>
                    <path d="M682.3,480.9 L680,478 L680,480.9 L682.3,480.9 L682.3,480.9 Z M656.8,478.2 L656.5,476.3 L657.5,475.6 L656.6,469.8 L654.9,472 L653.6,477.4 L656.8,478.2 L656.8,478.2 Z M673.2,470.2 L672,468.3 L671.4,471.6 L673.2,472.1 L673.2,470.2 L673.2,470.2 Z M655.3,470.1 L656.1,468 L654.8,467.5 L654.2,470.3 L655.3,470.1 L655.3,470.1 Z M640.9,282.1 L640.5,285.6 L641.9,288.2 L644.2,290 L646.8,294.4 L647.6,297.9 L645.9,304.3 L645.5,305.8 L648.9,305.3 L652.4,311.3 L652,312.7 L649,314.6 L638.4,325 L637.3,328.5 L641,332.4 L646,336.4 L647,342.6 L643.4,341.2 L637.5,344.8 L637.7,347.1 L639.8,349.5 L639.5,351.4 L638.5,352.6 L638.5,353.1 L639.2,357.2 L640.5,358.4 L642,362.2 L640.9,368.4 L641.6,368.5 L643.2,371.9 L642.7,374.5 L639.2,374.1 L640.4,377.6 L639.8,380.5 L638.2,384.1 L635.1,386.6 L636.2,387.7 L633.5,391.5 L631,390.9 L631.2,393.6 L626.3,395.7 L622.9,394.4 L624.6,397.4 L623.6,400.2 L620.3,400.2 L621.1,402.6 L620,402.9 L616.1,401 L611.1,399.6 L609.6,402 L610,404.1 L608.2,406.3 L604.4,407.1 L596.8,410.1 L594.7,413.6 L592.6,416 L589.7,415.4 L586.7,411.7 L583.7,411.3 L583.5,414.2 L578.7,415 L577.9,415.8 L579.7,417.2 L578.7,423.8 L580.1,425.6 L584.8,426.8 L589.7,431.6 L592.8,431.2 L599.1,431.6 L597.6,438.4 L599.5,440.7 L601.9,441.2 L604,442.9 L605.4,445.8 L608,446.1 L609.9,448.1 L608.5,449.7 L610.1,451.1 L611.7,454.3 L613.2,455.6 L610.6,456.9 L610.1,458.2 L608.2,458.8 L608,459 L608.7,460.1 L613,462.3 L615,462.4 L618.6,464.8 L618.9,468.6 L626.1,470.2 L626.8,472.1 L632.5,473.5 L635,479.5 L639.7,478.1 L642.4,477.8 L646.6,475.1 L651.3,470.5 L653.3,465.8 L656.8,462 L655.6,458.9 L649.3,455.7 L649.3,452.9 L651.4,456.9 L657.8,459.2 L658.7,462.4 L656.8,469.1 L658.6,472 L658.9,474 L658.1,476.3 L660.6,480.7 L662.4,480.1 L661.9,476.4 L660.7,473 L662,474 L662.3,477.9 L664.8,476.5 L665.8,479 L667.3,478.1 L667.5,471.8 L668.1,469.2 L668.9,474.9 L669.6,476.8 L668.4,480.4 L669.3,481.5 L670,479.7 L671.2,480.3 L672.6,474.9 L670.4,470.6 L671.4,467.2 L671.7,461 L673.5,457.4 L672.4,461.2 L673,464 L672.4,466.6 L674,466.8 L676.4,459.9 L674.7,462 L675.3,468.1 L674.7,475.3 L676.1,478.3 L675.6,479.4 L677.5,480.1 L678,476.6 L678.8,477.7 L680.5,476.6 L679.9,475.5 L680.7,473.2 L681.2,475.9 L685.2,478.2 L688.1,477 L686.5,473.7 L685.2,469.3 L682.1,464.8 L682.7,466.4 L686.6,466.3 L686.7,458.8 L686.1,456.7 L683.8,452.4 L682.4,445.6 L681.7,444.5 L679.9,438.2 L681,434.9 L678.4,431.7 L677.8,425.6 L680.3,422.9 L679,421.6 L671.6,419.8 L671.6,419 L673.9,412.8 L672.3,412.9 L669,409.2 L666.9,408.3 L666.1,406.7 L666.9,399.4 L669.3,398.8 L671.2,396.8 L669.7,391.7 L669.7,388.3 L671.7,386.3 L671.2,384 L668.6,382.3 L667.1,384 L660.1,381.5 L651.4,377.4 L649.5,375.9 L647.3,372.3 L648.1,368.4 L650.7,365.2 L649.7,362.7 L651.3,361.7 L653.9,363.8 L656.3,364.1 L662.4,352.9 L668.9,353.2 L671.3,352.3 L674.5,352.8 L676.9,348.3 L670.8,345 L671.1,342.8 L668.7,341 L665.7,342.7 L662.6,341.8 L658.3,338.6 L658,336.4 L651.5,331.4 L648,332.1 L646.4,327.9 L648.8,322.8 L648.1,321.6 L649.8,319 L653.8,316.8 L654.9,313.4 L656.9,311.6 L658.9,310.9 L656.7,308 L654.1,307.4 L652.9,308.1 L654.8,302.5 L655.8,305.2 L659.6,307.5 L663.9,309.4 L665.6,313.1 L663.9,314.3 L667.1,313.6 L669.2,315.6 L672.1,314.1 L673.6,315.5 L676.5,314.8 L671.5,310.8 L672.9,308.2 L677.3,311.5 L679.7,318.7 L681.9,319.5 L686.6,323.2 L693.7,322 L695.2,320.2 L693.7,319.3 L696.4,315.4 L696.4,316.1 L698.9,314.9 L701.8,309 L702.9,303.7 L701.5,297.1 L701.2,297 L698.4,298 L690,294.7 L688.1,295 L684.7,293.2 L679.8,294.9 L677,294.6 L675.7,292.6 L672.9,291.3 L671.9,291.6 L669.4,289.9 L668.3,286.1 L665,283.9 L664.7,283.6 L657.8,283 L655.7,285.2 L652.2,285.9 L648.8,284.7 L645.2,284.8 L641.3,281 L640.9,282.1 L640.9,282.1 Z" id="WB" stroke="#C3C3C3" stroke-width="2" fill="#ECECEC"></path>
                    <polygon id="BR" stroke="#C3C3C3" stroke-width="2" fill="#ECECEC" points="509.3 281.4 512.3 285.7 512.3 286.8 515.3 291.9 515.3 293.4 516.8 296.1 521.8 297.1 522.4 301.2 527.4 305.4 518.2 305.6 516.7 308.6 513.3 309.3 512.4 311.5 518.4 313.7 520.8 314.1 520.6 318.7 515 321.1 517.5 324.7 520.7 326.4 523.5 330.2 528.8 331.3 532.8 332.9 535.3 335 534.7 337.3 530 338 527.8 336.4 526 338 525.9 340.5 523.7 340.6 520.5 337.6 517.8 339.8 515.5 342.8 510.3 346.4 509.8 347.3 497.6 354.9 495.7 356.4 494.9 361.8 496 363.5 495.9 367.8 501.6 372.6 501.3 375.1 501.8 379.2 501.8 380.2 502.3 380.2 509.1 380.8 511 379.6 515.7 379 517.5 376.3 518.5 376.6 520.7 381.5 522.9 381.6 523.6 380.5 527.8 381.8 527.5 382.8 533.2 387.6 534.3 387.4 536.5 384.3 543.2 380.6 545.8 382.6 546.5 385.2 550.4 384.8 552.4 384 553.1 385.7 555.3 382.6 559.3 380.4 565.3 379.6 568.4 377.8 570.9 377.7 570.7 374.4 571.9 373.3 572.6 370.8 576.2 370.1 578.9 372.6 580.5 372.4 583 370.7 585 372.7 585.8 376 589.2 376.9 592 379.2 591 380.8 596.6 384.7 597.9 380.9 601 376.8 603.6 377.4 607.3 376 608.4 376.8 610.8 376.6 611.6 374.6 614.8 375.5 616.5 372.5 617.8 365.6 618.4 359.7 620.5 358.2 622.1 358.2 623.4 354.1 626.9 353.9 628.3 350.5 631.4 349.7 632.4 351 638.3 352.1 638.5 352.6 639.5 351.4 639.8 349.5 637.7 347.1 637.5 344.8 643.4 341.2 647 342.6 646 336.4 641 332.4 637.3 328.5 638.4 325 649 314.6 652 312.7 652.4 311.3 648.9 305.3 645.5 305.8 645.3 306.6 644.4 310.5 642.3 312 638.2 308.8 637.2 309.7 629.9 312 626.4 310.5 622.4 311.4 621.6 313.2 619 312.7 618.1 311.4 615.4 311.9 613.1 309.5 609.9 307.3 606.9 308.7 605.3 310.7 603.1 310.5 601.3 311.6 587.8 305.2 579.1 303.9 576.6 304.8 573.4 307.2 572.7 305.9 570 304.8 569 299.2 565.6 297.3 560 300 558.9 299.8 556.3 301.7 552.8 301 551.9 300.1 551.7 297.8 550.4 297.3 547.1 298.1 544.9 296.3 543.2 293.9 534.8 292 534.2 283.3 532.4 281.5 523.2 280.1 521.5 278.2 516.3 275.6 514.8 277.5 513.1 278.1 509.4 281.5 509.3 281.4"></polygon>
                    <polygon id="SK" stroke="#C3C3C3" stroke-width="2" fill="#ECECEC" points="641.3 281 645.2 284.8 648.8 284.7 652.2 285.9 655.7 285.2 657.8 283 664.7 283.6 664.6 283.6 669.1 278.6 669.3 277.6 664.8 273.6 664 270.2 665.8 265.8 666.8 259.2 664.8 253.4 658 250.3 651.5 254.9 643.3 256.5 643.1 258.9 644.8 261.1 643.8 267.3 642.1 270.6 642 279.3 641.3 281"></polygon>
                    <polygon id="CT" stroke="#C3C3C3" stroke-width="2" fill="#ECECEC" points="518.5 449.4 521.2 446.2 522.2 446.2 525.8 443.5 529.3 434 522.6 433.6 522 431.5 520.2 429.3 519.6 425.5 519.8 422.8 518.2 420.1 517.4 420.9 517.1 416.5 518.1 415.4 517 411.1 515.2 413.9 513.2 413.1 509 409.2 508.6 405.7 502.9 400.3 501.8 395.9 497.8 394.5 496.1 394 495.7 394.6 493.9 396.9 492.7 400.3 489.1 402 483.2 401.9 480 399.5 478.8 399.2 478.3 399.9 477.7 401.7 474 404.7 470.2 407.2 459.4 406.5 455.3 406.5 450.7 405.1 446.6 406.8 445.6 406.6 442.4 403.7 440.4 405.5 442.6 410.5 440.5 412.7 439.6 415.1 441.4 417.8 444.6 415.7 449.9 416.9 452.2 419.9 454.5 421.9 456.3 421.5 458.8 423.1 459.3 424.4 457.5 431.2 455.5 431.1 451.5 433.2 451.5 436 448.9 438.9 446.4 439.9 446.4 443.7 444.5 447.1 435.5 454.2 434 454.2 432 452.5 427.7 454.1 426.1 453.7 424.8 456 423.9 461 420.4 466.3 420.1 468.2 419.2 466.8 415.4 473.4 415.6 475.5 414 478.5 412.1 480.2 412 487.8 411.1 491.3 410.5 493 410.5 494.7 410.1 495.5 403.7 499.8 402.9 503.2 403 506.8 406.1 507.7 406.6 513.1 404.6 518.8 408.9 519.4 409.2 522.9 407.7 529.6 403.3 531.5 402 534.8 405.9 535.8 406.7 538 406 543.4 403.4 542.7 404.4 546 402 547.9 404 548.8 406.2 547.2 409.6 550.9 412.2 554.9 416.4 556.6 418.3 558.7 415.9 564.2 414.6 564.8 408.5 563.7 408 562.3 406 563.3 403.7 565.8 400 573 398.2 575.2 398 578.6 400 581.1 397.4 585.3 397.5 585.9 398 585.8 402.2 590.3 404.1 589.7 408.1 592 411.9 596.5 414.6 602.6 413.4 603.5 413.6 605.1 417.3 604.1 417.4 605.5 421 606 420.8 610.5 422.9 618.5 427.4 616.7 433.2 617.6 435.7 617.7 435.6 617.3 435.8 615 437 615.2 438.6 611 438.6 609 439.6 604.4 442.2 601.2 444.4 600.1 452.9 591.5 452.5 588.3 455.9 585.8 460.3 584.3 461.1 581.1 462.8 578.4 463.1 575.5 461.8 571.8 461 571.3 460.5 565.8 461.1 564.5 458.7 559.7 456.2 557.2 456.5 552.4 455.5 547.7 454.4 547.6 452.7 545.5 449.9 543.9 449 541.4 452.6 536.8 456.1 539.7 457.5 538.1 462.7 541.5 464.8 545.8 466.7 544.4 471 544.5 474.4 545.5 474.4 548.1 478.8 544.7 478.2 544.2 478.4 540.6 473.4 539.1 472 539.2 468.8 536.7 469.4 534.4 468.8 524.1 468 524.1 466.2 521.4 466.8 516.9 465.9 509.7 469.1 510.4 470.2 509.5 474.6 503.9 476.1 499.3 486.7 498.4 491.8 500.3 494.1 498.4 497.3 491.8 500.2 491.8 498.1 488.1 498.6 484.7 502.2 478 502.6 475.9 505.6 474.2 503.8 469.7 503.9 468.4 506.7 462.1 510.4 460 514.3 456.6 518 455.5 518.3 450.5 518.3 449.9 518.5 449.4"></polygon>
                    <polygon id="MP" stroke="#C3C3C3" stroke-width="2" fill="#ECECEC" points="477.7 397.8 476.6 395.5 474.5 392.7 476.4 391.7 477.3 387.6 476.1 379.9 478.8 378.8 477 375.7 474.6 374 472.5 375 470 375 466.1 375.9 465.5 377.1 462.2 377.2 462.6 374.8 460.9 374.5 460.7 371.7 455.6 371 454 369.7 450.7 369 447.7 366.5 448 365.2 444.8 363.7 438.2 361.4 436.9 357.6 434.7 360.5 431.9 360.9 429.6 358.7 427.5 358.8 426.8 362.3 425.3 364.3 425.6 366.2 422.9 368 419.6 366 418.4 366.4 416.2 365.4 414.5 365.8 412 365.1 414 360.8 414.7 357.3 411.9 359.3 409.5 359.4 410.5 362 408.2 362.4 405.8 359.6 402.1 360.8 402.8 362.5 402.1 364.4 401.2 363.3 400.3 364.5 395.9 362.7 400.8 358.2 400.4 356.9 397.8 355 396.4 350.4 393.8 350.4 392.6 351.6 390 352.3 382.3 358.1 382.9 358.8 380.5 360.3 378.8 359.7 374.9 359.5 373.6 358.9 368.1 359.9 367.6 362.4 365.9 359.8 368.7 356 366.9 355.2 364.3 355.2 364.7 352.2 363.8 353.3 364 359.3 359.3 359.9 357.7 358.2 355.7 358.9 356.3 355.8 355.4 355.2 352.9 357.3 350.7 356.7 353.5 351.5 353.6 349.7 352.1 346.6 350.5 347 350.3 349.4 349 350.4 348.4 347.5 346.1 347.7 346.8 350.1 344.1 350.9 341.9 350.5 340.6 352.8 341.2 357.6 343.3 366.3 345.5 369.4 346.2 371.5 345.7 376.6 346.3 377.8 351 378.6 353.8 385.9 351.7 387.9 350.6 390.5 348.7 392.3 343.2 389.4 339.8 386.4 337.1 386.6 336.8 388.2 334.4 389.4 333.3 388.4 333.8 386.3 331.5 384.1 331 375.7 329.9 373.6 328.4 368.7 333.5 364.2 334.2 359.4 333.9 357 331.1 350.6 333.3 348.7 334.6 345.6 346.8 342.5 346.4 337.9 351.1 331.5 353.1 320.8 356.1 319.2 356.6 315.6 355.9 312.6 353.2 307.8 352.9 305.7 349.9 305.1 347.1 302.5 342.6 302.8 342 303.5 330 301.1 329.4 301.1 328.8 301.4 326.2 303.6 322.3 306 317.6 309.8 309 314.2 304.2 317.1 301.2 317.5 297.5 321.3 291.1 323.9 281.1 332.5 276 334.9 274.9 338.5 273.8 338.9 275 345.3 278.6 350.9 287.6 353.9 290.4 353.6 293.8 352.4 296.2 352.8 297.6 350.7 301.4 349.5 301.9 350.2 301.9 354.7 303.2 357.4 300.9 361 296.3 360.3 290.2 361.7 287.5 362.9 285.3 364.9 286.2 368.8 283 370.4 286.1 373.7 290.5 375.3 291.5 377 291.9 380.1 288.1 382.2 284.4 379.5 283.7 379.9 283.9 387.1 286.4 391.7 285.4 393.6 282.2 394.1 278.7 391.5 279.1 389 277.6 389.1 275.4 391.7 273.3 391.9 267.3 389.7 264.8 389.8 263 387.2 261.5 388.2 259.9 396.1 257.2 397.7 256.3 401 248.3 402.3 246.7 406.7 240.5 401.4 241 398.8 242.2 397.8 244.8 399.5 247.8 399.2 250.9 395.2 249.6 394.4 250.9 389.8 248.9 383.9 249.2 382.9 253.4 381.4 253.3 378.4 251.8 376.6 251.6 374.2 250.6 372.8 239.7 374.6 235.2 373.8 232.4 373.8 231.9 369.4 236.3 369.6 238.4 368.3 237.9 367.5 235 368 233.6 366.3 235.3 366.7 234.9 364.2 236 362.1 228.5 364.8 228.3 367.8 224.8 368.7 219.7 366.2 219.9 370.6 224.2 371.3 223.8 375 221 375.6 218.9 372.2 217.9 372.1 218.2 375.5 216 381.3 219.1 382.3 219.2 384.7 217.3 386.3 217 389.9 221.5 394.8 223.6 397.9 222.9 398.9 221.3 404 221.4 406.3 222.3 408.8 222.2 410.7 219.4 415.5 215 418.1 212 419.2 208.4 424.5 212.7 426 214.4 428.3 206 431.7 204.4 431.3 202.2 432.1 201.6 432.5 202.2 434.2 205.8 440.7 203 446.1 194.4 451.1 192.5 450.4 191.2 451.5 193.6 454.1 197.6 454.5 198.4 455.7 192.3 461.2 193.7 464 194.2 467.9 194.1 470.5 194.9 470.7 196.6 471.5 201.5 469.4 202.9 468.2 205.9 470.9 206.6 478.6 209.7 481.1 212.5 482.6 222.7 484.2 226 487.5 227.1 489.4 232.7 491.2 244.4 491.4 251.5 490.8 256.8 492.1 259.8 495.1 259 499.6 261.5 502 269.8 501.3 272.8 498.3 277.1 496.3 276.5 493.1 279.7 490.6 281.3 488.3 282.6 484.1 291.1 480.2 292.6 479.8 296.3 480.5 299.8 478.1 304 478.2 306.3 479.9 307.7 486.1 303.8 486 302.9 487.3 305 491.6 306.2 490.7 307.5 491.8 311 491.5 311.7 492 315.3 490.5 318.8 491.3 322.7 490 325.9 488.4 328.7 485.8 332.8 483.8 335.5 484.1 336.6 487.6 338.2 486.9 342.5 488.6 346.2 488.5 351.7 487.6 352.6 485 360.4 483 365.9 481.2 370.5 481.8 373.1 486.1 374 486.5 380 484.6 381.8 485.1 383 486.8 390.6 485.3 391.5 484.2 394.7 483.4 400.8 488.1 401.1 490.8 404.7 491.5 408.3 493.7 410 493.1 410.5 493 411.1 491.3 412 487.8 412.1 480.2 414 478.5 415.6 475.5 415.4 473.4 419.2 466.8 420.1 468.2 420.4 466.3 423.9 461 424.8 456 426.1 453.7 427.7 454.1 432 452.5 434 454.2 435.5 454.2 444.5 447.1 446.4 443.7 446.4 439.9 448.9 438.9 451.5 436 451.5 433.2 455.5 431.1 457.5 431.2 459.3 424.4 458.8 423.1 456.3 421.5 454.5 421.9 452.2 419.9 449.9 416.9 444.6 415.7 441.4 417.8 439.6 415.1 440.5 412.7 442.6 410.5 440.4 405.5 442.4 403.7 445.6 406.6 446.6 406.8 450.7 405.1 455.3 406.5 459.4 406.5 470.2 407.2 474 404.7 477.7 401.7 478.3 399.9 478.8 399.2 477.7 397.8"></polygon>
                    <path d="M384.2,865.2 L384,860.2 L384.2,859.2 L382.8,859 L379.3,861.6 L384.2,865.2 L384.2,865.2 L384.2,865.2 Z M383.2,827.4 L384,825.5 L384.2,824.7 L384.2,824.7 L381.4,824.6 L378.7,823 L379,827.7 L380.2,828.8 L382.8,829 L383.2,827.4 L383.2,827.4 Z M224.1,821.7 L224.6,822.1 L224.8,822.3 L225.5,821.9 L226.9,820.9 L227.1,819.1 L229.6,817.9 L228.1,817.4 L225.3,818.7 L224,821.6 L224.1,821.7 L224.1,821.7 Z" id="PY" stroke="#C3C3C3" stroke-width="2" fill="#ECECEC"></path>
                    <path d="M399.1,769.1 L399,769.2 L398.8,769.5 L398.8,769.6 L398.8,769.6 L399.8,772.1 L400,772.1 L399.9,770.7 L399.1,769.1 L399.1,769.1 Z M328.2,796.2 L325.9,795.7 L321.3,793.1 L320.3,794.5 L317.3,792.4 L313.4,792.8 L312.1,797.6 L308.8,799.1 L306.8,799.2 L307,806.5 L306.5,808.7 L301.7,814.2 L302.6,815.7 L309.8,816 L312.1,819.2 L307.1,824.8 L302.5,825.6 L300.8,829.1 L299.6,830.4 L296.7,830.5 L291.5,829.9 L288.3,831.5 L286.4,829.5 L282.3,830 L279.2,836.1 L271.8,835.9 L268.3,832.7 L265.4,834.2 L265.2,834.6 L265.3,834.8 L261.7,837.4 L259.1,836.7 L259.2,840.6 L267.9,844.6 L269.2,847.1 L266.8,848.9 L266,850.6 L269.1,851 L273.6,850.6 L277.2,856.6 L274.6,856.9 L274.1,859.8 L277.3,861.8 L281.4,866 L279.1,870.8 L279.6,882.6 L283.6,885.7 L291.8,881.3 L293.5,883.6 L294,885.5 L293,891 L294,896 L293,897.8 L293.2,902 L291.5,907.4 L297.1,908.7 L299.1,911.9 L295.8,918.5 L292.2,927.8 L291.5,931.9 L293.7,934.8 L291.1,939.6 L291.6,942.5 L294.2,944.8 L294,946.9 L292.6,947.9 L288.6,954.4 L288.6,954.4 L293.1,958.3 L304.5,961.6 L304.3,960.5 L307.2,959 L311,958.4 L312.9,956.5 L319.7,952.4 L321.9,951.4 L324.2,947.3 L323.8,941.3 L326.3,938.2 L325.5,937.9 L326,934.1 L328.2,930.4 L333,926.5 L336.8,924.8 L345.2,922.6 L359.3,920.2 L360.5,919.5 L365,920.4 L370,923 L367.1,920.7 L366.8,918.4 L363.5,919 L358.8,918.9 L356.1,918.1 L353.3,915.6 L351.7,912.5 L354.1,905.6 L357.5,901.6 L359.7,897.7 L364.5,892.6 L363.3,890.9 L363.1,887.5 L364.2,885.6 L368.2,882.5 L374,883.2 L381.6,884.6 L384.4,883.9 L384.8,880.4 L384.3,867.1 L384.2,865.2 L379.3,861.6 L382.8,859 L384.2,859.2 L384.2,859.2 L384.4,852.8 L383.7,846.4 L381.7,845.6 L383.3,844.6 L381,839.5 L382.6,830.3 L382.8,829 L380.2,828.8 L379,827.7 L378.7,823 L381.4,824.6 L384.2,824.7 L384.2,824.5 L391.3,811.4 L394.7,806.3 L396.1,801.4 L397.2,799.2 L401.1,776.3 L400.5,772.5 L399.8,773.1 L398.2,771.1 L398.2,771.1 L396.2,771.8 L391,770.1 L387.9,773 L388,774.4 L382.9,777.3 L381.8,779.8 L378.5,777.8 L375.5,777.9 L370.9,775.8 L370.3,776.1 L369.3,780 L365.2,783.2 L364.3,782.5 L359.9,786.3 L357.4,786.5 L354.3,784.6 L349.9,784.9 L345.3,785.7 L342.3,788.7 L341.3,793.1 L340,796.1 L335.7,800.4 L332.4,800.4 L329.7,798.4 L328.2,796.2 L328.2,796.2 Z" id="TN" stroke="#C3C3C3" stroke-width="2" fill="#ECECEC"></path>
                    <polygon id="path48" stroke="#C3C3C3" stroke-width="2" fill="#ECECEC" points="201.4 431.8 197.9 427.6 195.5 428 194.4 424.5 189.3 420.8 186.6 420.5 185 418 182 418.8 179 414.9 178.4 411.2 175.7 412.2 175.1 408.3 173.5 407.6 171.2 401.9 173.2 400.1 172.2 396 171.2 394.3 167.8 397.4 165.8 394.6 163.5 392.9 162.4 389.8 163.4 387.5 166.9 384.3 163 383 163.1 380 160 380.5 158.4 384.4 156.6 385 150 382.9 149.7 381.9 145.8 379.6 144 379.9 143.4 381.7 137.2 377.4 135.9 376.1 138.7 374.9 134.6 375 131.2 373.9 129.2 372.1 126.3 373.6 116.3 373.5 114.8 372.6 110.9 372.3 99.8 372.8 97.5 371.6 97.8 372 94.9 373.4 94.1 376.3 97.7 380.7 95 383.4 92.5 383.1 87.6 387.4 82.6 387 81.5 386.4 79.7 380.5 76.3 381.2 65.4 385 64.5 387.2 61.4 389 54.8 388.8 51.7 387.8 48.4 384.6 39.3 384 36.8 384.8 31.8 383.6 28.9 384.5 27.2 382.2 25.2 384.8 24.2 382.5 22.1 381.6 20.9 389.6 20.5 394.5 11.1 394 3.6 396.9 2.7 398 2.3 401.1 3.2 403.2 4.8 404.1 2.8 404.5 0.9 406.1 2.1 406.8 6.8 407.2 9.8 403.4 17.3 399 20.1 398.8 23.5 397.6 21.7 398.9 17.9 400.2 17.3 401.5 11.4 405 12.2 406.3 9.5 406.1 9.3 410.6 11.1 410.3 9.6 412.3 13.4 413.7 12.4 414.5 15 416.9 13.1 418.4 17.6 423.8 23.1 427.9 28.6 430.6 34.9 434.7 38.1 435.1 43.3 437.1 50.7 438.3 53.5 435.2 61.9 432.9 63.9 432.8 64.1 431 65.3 432 67.7 430.3 70.4 432.3 72.5 432.6 73.7 427.4 75.6 426 75.9 431.8 74.8 431.7 72.2 433.8 70.3 437.8 67.1 442.6 64 446.1 61.2 445.6 58 446.3 53.6 448.7 52.3 450.2 50.4 448 49.1 450.6 44.2 448.8 43.1 449.4 41.4 452.7 35.3 454.3 32.9 454.6 32.8 449.6 28.2 449.7 28.8 447.1 26 448.8 24.1 453.5 25.6 456.8 31.8 465 40.6 473.3 43.4 477 45.3 478.3 51.1 484.9 58.6 495.2 65.1 501.4 74 507.8 80.5 511.2 83.8 511.8 88.2 511.7 88.2 511.7 88.3 510.9 88.5 510.7 89.3 510.8 89.4 510.6 93.8 509.9 99.8 507.1 105.3 505.5 105.4 504.9 110.7 502.2 114.8 501.1 120.4 497.8 124.7 496.5 126.4 495.3 126 493.6 126.9 491.2 131.3 485.7 133.2 481 132.6 478.3 130.7 477.5 129.2 474.6 125.5 474.8 123.6 474.3 127.2 473.1 126.4 471 129.5 471.2 124.9 469.4 127.1 469.3 133.8 465.7 134.7 461 134.4 459.4 130.7 458.5 132.4 456.8 135.2 458.3 137.6 454.6 137.3 458.6 140.1 459.4 142.6 457.7 149.3 459.3 154.2 458.1 153.8 460.5 152.2 459.4 143.7 460.5 140.7 469 141.5 470.5 144.5 468.9 144.3 470.4 142.4 473.3 141 478.4 154.2 479.1 160.6 476.4 160.9 477 152.9 480.6 150.3 480.7 149.5 482.1 143.8 485.8 145.9 486.6 144.2 488.6 143.1 493.5 144.4 493.3 145.7 495.2 143.7 498.2 143.9 499.9 146.5 497.2 145.9 500.4 149.3 498.5 150.9 501.4 148.7 501.6 150.3 505.6 150.5 508.3 152.2 510.2 152.9 509.5 151.2 520.3 150.1 521.8 151.1 522.9 151.1 524.6 149 525 149 525.1 146.6 528.4 145.7 533.7 145.1 535.3 145 535.7 147.5 534.7 149.1 534.7 151.3 534.6 153 533.9 152.9 533.6 152.5 531.4 151.3 530.4 153.6 528.3 157.4 526.7 157.7 528.4 156.4 530.7 158.2 533.4 160.5 532.8 160.3 534.5 161.2 534.7 163.9 531.8 167.4 532.4 167.8 526.4 167 525.7 170.5 519.8 170.3 518.6 167.7 515.5 169.7 513.7 173.3 516.3 179.8 518.5 181.6 517.6 182.3 515.4 185.5 512.2 185.8 510.7 184.5 504.7 177.9 499.5 176.9 497.8 181.8 496.1 182.3 494.5 186.2 493.8 188 490 191.2 487.5 192.6 488.1 197.4 486.9 199.1 486 198.9 483.9 195.8 484.8 194.3 483.9 183.7 485.9 181.4 482 183.9 480.9 183.5 474.3 191.9 470.9 194.1 470.5 194.2 467.9 193.7 464 192.3 461.2 198.4 455.7 197.6 454.5 193.6 454.1 191.2 451.5 192.5 450.4 194.4 451.1 203 446.1 205.8 440.7 202.2 434.2 201.6 432.5 201.4 431.8"></polygon>
                    <polygon id="GA" stroke="#C3C3C3" stroke-width="2" fill="#ECECEC" points="186.4 693.1 184.3 693.9 181.7 692.3 181.4 690.5 174.1 689.9 173.7 690.3 176.2 697.9 179.6 696.6 179.8 697.5 177.1 699.3 181.9 701.1 183 702.4 179.3 701.2 176.7 701.1 181.7 711 180.9 712.8 184.9 715.8 185 718.5 186.5 719.5 186.8 719.7 191.5 717.8 193 714 193.5 708.4 192.5 707.8 194.4 705.6 192.2 699.1 193 697.5 192 693.5 190 692.7 188.2 693.2 187.7 693.1 186.4 693.1"></polygon>
                    <polygon id="AR" stroke="#C3C3C3" stroke-width="2" fill="#ECECEC" points="771.4 286.6 777 286.2 789.8 280.6 794.2 280.7 797.1 281.7 798.5 283 801 283.8 812.1 281.9 814.9 283.2 820.2 281.6 823.3 279.6 826 277.2 825.9 274.2 831.4 267.5 837.7 261 836.2 258.3 837.8 257.3 840.7 258.7 843.6 257.7 844.5 258.5 858.7 251.3 867.7 247.3 869.6 246.1 872.7 246.8 875.3 246.1 881.8 241.9 889.5 241.2 889 243.9 885.7 249.2 885.7 254.1 888.9 256.7 890 262 891.1 260.5 893.5 261.8 891 266.1 887.7 266.4 881.1 268.2 878.4 267.9 874.1 273.4 871 276.1 869 276.4 868.7 276.7 869 277.7 870.9 279.6 870.5 284.1 872.4 290 872.9 290.1 876.9 288.2 879.5 283.8 882.1 283.4 883.9 280.8 885.3 280.6 887.8 276.7 891.2 275.3 894.4 269.3 898.2 266.7 906.4 264.6 910.7 264 912.6 262.4 916 261.8 917.2 262.3 920.5 267.5 925.8 269.7 929.6 270.4 929.9 268.9 920.6 258.4 920.5 256.1 919.4 252.3 922.7 248.2 925.6 245.9 929.7 241.2 932.7 241.5 932.8 236.9 931 235.4 930.9 230.1 923.8 225.4 917.1 226.4 916.3 223.8 909.8 218.6 907.1 218.1 905.5 219.1 904.7 224.7 904.2 225 901.7 221.7 902.7 220 901.5 218.5 906.2 214.6 900.5 205 897.5 203.7 896.8 201.6 892.3 204.4 891.3 201.6 892.2 200.2 895.4 199.1 896.6 196.4 896 195.4 892.6 196.8 891.6 196.4 889.1 192.6 883.4 193.4 880.7 194.8 877 194.5 877.4 196.8 876.7 198.8 872.7 198 869.5 202.2 867.8 200.9 867.5 202.6 863.4 203.5 863.9 205.6 861.5 204.5 853.3 202.2 853.8 203.6 851.4 202.7 847.3 202.5 845.1 198.7 843.9 198 841.2 198.4 839.8 201 836.6 201.9 833.8 204.4 832.7 204.4 832.4 206.2 835 208.6 832.4 212 830 212.3 827.3 214.1 822.5 216.2 821.3 218 818.8 219.3 816.9 221.3 813.4 222.4 808.4 222.7 799.9 229.5 798.4 234.1 791.4 240.7 788.9 240.8 785.6 244.1 785.2 245.3 787.1 248.8 786.4 249.9 779.8 254.3 778.2 253.3 777.6 255.2 776 255.2 773.4 253.2 773.2 255.2 770 255.3 768.3 256 766.6 258 759.1 257.6 754.6 258 753.3 261.6 754.4 266 759.2 269.6 764.7 268.5 766.3 267.5 770.3 273.2 768 278.4 771.4 286 771.4 286.6"></polygon>
                    <polygon id="MZ" stroke="#C3C3C3" stroke-width="2" fill="#ECECEC" points="808.3 374.3 806.3 374 803.1 374.7 800.5 371.1 796.9 380 792.9 383.9 790.9 383.3 790.6 380.4 788.7 380.3 786.4 380.5 786.6 381.1 787.4 382.2 787.8 390.6 788.2 393.6 786.9 394.5 786.7 399.5 786.8 400.1 786.7 402.8 789 409.2 790.4 411.4 791.1 414.2 790.4 418.1 792.8 427.5 793.9 427.9 797.2 434.6 798.5 441.6 801.3 453 800.1 454.5 801.7 459.5 804.3 457.7 804.8 453.4 810.1 456.9 811.7 460 812.5 457.8 814.9 458 814.8 454.9 816.1 454.2 816.2 450.9 819.7 451.4 819.9 444.3 815.9 433.7 816 430.8 818.4 427.6 818.8 426.2 817.2 421.6 823.4 420.5 824.5 417.7 824.3 411.2 824.8 410.3 824.4 407.2 824.8 399.3 822.7 396.2 821.7 390.9 819.4 386.6 819.4 385.9 818 386.6 817.3 384.9 813 385.9 809.3 383.1 810.1 375.6 809.3 373.9 809.1 373.6 808.3 374.3"></polygon>
                    <polygon id="TR" stroke="#C3C3C3" stroke-width="2" fill="#ECECEC" points="784.2 380.3 784.7 377.1 783.6 372.1 780.7 370.1 780.4 370.4 779.5 371.8 779.8 374.9 777.5 376.4 774.8 376.3 773.2 383.4 772 384.2 767.9 382.1 768.3 384.1 766.2 384.5 764.9 382.4 763.7 386.7 756.3 387.8 755.7 390.9 754 391 752.3 393.9 752.8 396.8 750.3 401.4 751.6 402.3 750.5 403.8 753 408.7 753.6 409 757.6 422.2 759.6 422.3 758.8 419.3 759.1 416.4 762.2 419 763.9 423.9 765.2 426 770.3 425.6 773.2 422.2 771.1 415.5 771.6 413.7 773.7 410.3 775.4 409.5 776.9 407.3 775.7 401.9 779.8 401.8 781.7 399.2 785.2 401 786.7 399.3 786.7 399.5 786.9 394.5 788.2 393.6 787.8 390.6 787.4 382.2 786.6 381.1 786.4 380.5 784.2 380.3"></polygon>
                    <g id="vavania-location" transform="translate(74.000000, 403.000000)" fill="#F72E47"  visibility="hidden">
                        <path d="M14,6.88304094 C14,9.55263158 11.9259259,12.1578947 10.5648148,14.119883 C7.64814815,18.2690058 7.22685185,21.7748538 7.22685185,21.7748538 C7.16203704,22.0643275 6.90277778,22.0643275 6.83796296,21.7748538 C6.83796296,21.7748538 6.28703704,18.2690058 3.43518519,14.119883 C1.06944444,10.8391813 0,9.55263158 0,6.88304094 C0,3.05555556 3.0787037,0 6.96759259,0 C10.8240741,0 14,3.05555556 14,6.88304094 L14,6.88304094 Z M7.03240741,9.74561404 C8.55555556,9.74561404 9.72222222,8.49122807 9.72222222,7.01169591 C9.72222222,5.53216374 8.55555556,4.37426901 7.03240741,4.37426901 C5.60648148,4.37426901 4.40740741,5.53216374 4.40740741,7.01169591 C4.40740741,8.49122807 5.60648148,9.74561404 7.03240741,9.74561404 L7.03240741,9.74561404 Z" id="Shape"></path>
                    </g>
                    <path d="M149.8,522.2 L149.5,522.9 L149.2,523.6 L149.1,524.7 L149,525 L151.1,524.6 L151.1,522.9 L150.1,521.8 L149.8,522.2 L149.8,522.2 Z M89.3,510.8 L88.5,510.7 L88.3,510.9 L88.2,511.7 L88.5,511.7 L89.1,511.3 L89.3,510.8 L89.3,510.8 L89.3,510.8 Z" id="path54" stroke="#C3C3C3" stroke-width="2" fill="#F4F2F2"></path>
                </g>
            </g>
        </g>
    </g>
</svg>